<?xml version="1.0" encoding="UTF-8" standalone="no"?>
<!DOCTYPE svg PUBLIC "-//W3C//DTD SVG 1.1//EN" "http://www.w3.org/Graphics/SVG/1.1/DTD/svg11.dtd">
<svg width="100%" height="100%" viewBox="0 0 1476 789" version="1.1" xmlns="http://www.w3.org/2000/svg" xmlns:xlink="http://www.w3.org/1999/xlink" xml:space="preserve" xmlns:serif="http://www.serif.com/" style="fill-rule:evenodd;clip-rule:evenodd;stroke-linejoin:round;stroke-miterlimit:2;">
    <path id="mmejia" d="M521.933,456.037C525.22,455.139 528.328,454.242 531.077,453.344C543.798,402.074 548.924,377.267 562.634,343.851C578.823,304.392 606.69,300.142 622.879,349.236C629.46,369.192 634.697,392.874 644.395,424.625C704.162,408.47 769.667,390.52 829.433,374.365C834.333,308.655 840.441,266.183 839.474,221.792C839.115,205.303 848.027,188.981 862.425,191.277C874.915,193.27 884.227,205.664 889.679,232.562C895.404,260.813 903.3,303.256 916.932,349.236C941.799,341.46 967.615,334.876 992.956,327.696C994.911,286.375 996.069,258.944 998.694,221.792C1001.33,184.44 1016.17,74.064 1074.72,182.302C1095.91,221.485 1105.14,246.772 1122.05,290.001C1179.7,276.095 1248.47,250.866 1279.84,246.922C1295.81,244.913 1300.33,263.727 1305.59,290.017C1315.39,338.983 1317.07,386.856 1312.83,430.01C1309.53,463.578 1293.82,490.703 1274.1,500.014C1224.62,523.377 1151.27,406.271 1110.58,307.951C1078.06,316.926 1041.25,327.696 1008.73,336.671C1007.92,440.635 993.515,493.394 968.571,498.219C931.976,505.298 908.071,415.261 895.416,367.185C889.32,368.532 883.224,370.383 877.128,372.36L864.935,376.371C858.839,378.348 852.743,380.199 846.646,381.545C818.839,591.342 774.871,650.805 737.63,651.987C686.972,653.593 657.618,573.036 622.879,442.575C598.972,448.558 573.631,456.336 549.724,462.319C527.47,546.374 513.376,563.931 495.217,561.043C469.374,556.933 466.112,510.987 466.529,483.859C444.534,489.693 422.63,495.526 400.77,501.36L269.791,536.362C247.931,542.196 226.026,548.03 204.032,553.863C202.688,571.802 187.729,585.334 179.647,586.173C168.305,587.351 161,568.821 161,537.708C172.477,460.527 206.03,370.841 247.064,304.361C277.372,255.259 310.801,220.722 352.254,199.654C385.169,182.925 410.89,190.643 423.496,198.457C437.634,207.22 449.512,222.765 460.791,252.307C482.885,310.173 489.664,395.605 492.348,464.114C495.097,463.217 498.205,462.319 501.492,461.422L521.933,456.037ZM647.264,435.395C683.839,576.841 712.797,625.663 743.369,625.663C792.402,625.663 825.895,443.405 827.999,386.93C806.278,392.315 667.342,431.292 647.264,435.395ZM201.163,535.913C201.163,535.913 197.72,483.139 215.507,422.83C239.759,340.605 308.962,227.288 371.858,216.407C442.329,204.216 462.997,300.996 466.529,469.499C443.167,475.395 201.163,535.913 201.163,535.913ZM493.782,478.474L528.208,469.499C528.208,469.499 520.216,508.732 502.389,510.784C493.577,511.798 493.782,478.474 493.782,478.474ZM919.801,360.005C930.559,406.675 959.675,478.587 971.44,469.499C991.775,453.79 993.161,353.595 992.956,340.261C982.915,342.825 927.689,357.313 919.801,360.005ZM1127.79,302.566C1127.79,302.566 1238.44,267.436 1261.19,273.846C1273.82,277.407 1276.56,294.224 1281.27,320.516C1285.76,345.598 1294.81,419.182 1282.71,440.78C1269.22,464.858 1247.94,470.784 1221.03,446.164C1190.68,418.407 1152.03,356.322 1127.79,302.566ZM552.593,447.959L620.01,430.01C620.01,430.01 603.018,356.691 589.888,360.005C567.55,365.645 552.593,447.959 552.593,447.959ZM848.081,368.98C848.081,368.98 860.171,276.411 865.294,266.666C869.944,257.821 892.547,356.415 892.547,356.415L848.081,368.98ZM1008.73,322.311C1008.73,322.311 1008.63,202.189 1031.68,189.482C1056.92,176.144 1104.84,295.386 1104.84,295.386L1008.73,322.311Z"/>
</svg>
